# Blender 4.5.3 LTS
# www.blender.org
mtllib towelwy.mtl
o Plane_Plane.004
v 0.000000 0.000000 0.000000
v 0.060000 0.000000 0.000000
v 0.000000 0.060000 0.000000
v 0.120000 0.000000 0.000000
v 0.060000 0.060000 0.000000
v 0.180000 0.000000 0.000000
v 0.120000 0.060000 0.000000
v 0.240000 0.000000 0.000000
v 0.180000 0.060000 0.000000
v 0.300000 0.000000 0.000000
v 0.240000 0.060000 0.000000
v 0.360000 0.000000 0.000000
v 0.300000 0.060000 0.000000
v 0.420000 0.000000 0.000000
v 0.360000 0.060000 0.000000
v 0.480000 0.000000 0.000000
v 0.420000 0.060000 0.000000
v 0.540000 0.000000 0.000000
v 0.480000 0.060000 0.000000
v 0.600000 0.000000 0.000000
v 0.540000 0.060000 0.000000
v 0.600000 0.060000 0.000000
v 0.000000 0.120000 0.000000
v 0.060000 0.120000 0.000000
v 0.120000 0.120000 0.000000
v 0.180000 0.120000 0.000000
v 0.240000 0.120000 0.000000
v 0.300000 0.120000 0.000000
v 0.360000 0.120000 0.000000
v 0.420000 0.120000 0.000000
v 0.480000 0.120000 0.000000
v 0.540000 0.120000 0.000000
v 0.600000 0.120000 0.000000
v 0.000000 0.180000 0.000000
v 0.060000 0.180000 0.000000
v 0.120000 0.180000 0.000000
v 0.180000 0.180000 0.000000
v 0.240000 0.180000 0.000000
v 0.300000 0.180000 0.000000
v 0.360000 0.180000 0.000000
v 0.420000 0.180000 0.000000
v 0.480000 0.180000 0.000000
v 0.540000 0.180000 0.000000
v 0.600000 0.180000 0.000000
v 0.000000 0.240000 0.000000
v 0.060000 0.240000 0.000000
v 0.120000 0.240000 0.000000
v 0.180000 0.240000 0.000000
v 0.240000 0.240000 0.000000
v 0.300000 0.240000 0.000000
v 0.360000 0.240000 0.000000
v 0.420000 0.240000 0.000000
v 0.480000 0.240000 0.000000
v 0.540000 0.240000 0.000000
v 0.600000 0.240000 0.000000
v 0.000000 0.300000 0.000000
v 0.060000 0.300000 0.000000
v 0.120000 0.300000 0.000000
v 0.180000 0.300000 0.000000
v 0.240000 0.300000 0.000000
v 0.300000 0.300000 0.000000
v 0.360000 0.300000 0.000000
v 0.420000 0.300000 0.000000
v 0.480000 0.300000 0.000000
v 0.540000 0.300000 0.000000
v 0.600000 0.300000 0.000000
v 0.000000 0.360000 -0.000000
v 0.060000 0.360000 -0.000000
v 0.120000 0.360000 -0.000000
v 0.180000 0.360000 -0.000000
v 0.240000 0.360000 -0.000000
v 0.300000 0.360000 -0.000000
v 0.360000 0.360000 -0.000000
v 0.420000 0.360000 -0.000000
v 0.480000 0.360000 -0.000000
v 0.540000 0.360000 -0.000000
v 0.600000 0.360000 -0.000000
v 0.000000 0.420000 -0.000000
v 0.060000 0.420000 -0.000000
v 0.120000 0.420000 -0.000000
v 0.180000 0.420000 -0.000000
v 0.240000 0.420000 -0.000000
v 0.300000 0.420000 -0.000000
v 0.360000 0.420000 -0.000000
v 0.420000 0.420000 -0.000000
v 0.480000 0.420000 -0.000000
v 0.540000 0.420000 -0.000000
v 0.600000 0.420000 -0.000000
v 0.000000 0.480000 -0.000000
v 0.060000 0.480000 -0.000000
v 0.120000 0.480000 -0.000000
v 0.180000 0.480000 -0.000000
v 0.240000 0.480000 -0.000000
v 0.300000 0.480000 -0.000000
v 0.360000 0.480000 -0.000000
v 0.420000 0.480000 -0.000000
v 0.480000 0.480000 -0.000000
v 0.540000 0.480000 -0.000000
v 0.600000 0.480000 -0.000000
v 0.000000 0.540000 -0.000000
v 0.060000 0.540000 -0.000000
v 0.120000 0.540000 -0.000000
v 0.180000 0.540000 -0.000000
v 0.240000 0.540000 -0.000000
v 0.300000 0.540000 -0.000000
v 0.360000 0.540000 -0.000000
v 0.420000 0.540000 -0.000000
v 0.480000 0.540000 -0.000000
v 0.540000 0.540000 -0.000000
v 0.600000 0.540000 -0.000000
v 0.000000 0.600000 -0.000000
v 0.060000 0.600000 -0.000000
v 0.120000 0.600000 -0.000000
v 0.180000 0.600000 -0.000000
v 0.240000 0.600000 -0.000000
v 0.300000 0.600000 -0.000000
v 0.360000 0.600000 -0.000000
v 0.420000 0.600000 -0.000000
v 0.480000 0.600000 -0.000000
v 0.540000 0.600000 -0.000000
v 0.600000 0.600000 -0.000000
v 0.000000 0.000000 0.004487
v 0.060000 0.000000 0.004487
v 0.000000 0.060000 0.004487
v 0.120000 0.000000 0.004487
v 0.060000 0.060000 0.004487
v 0.180000 0.000000 0.004487
v 0.120000 0.060000 0.004487
v 0.240000 0.000000 0.004487
v 0.180000 0.060000 0.004487
v 0.300000 0.000000 0.004487
v 0.240000 0.060000 0.004487
v 0.360000 0.000000 0.004487
v 0.300000 0.060000 0.004487
v 0.420000 0.000000 0.004487
v 0.360000 0.060000 0.004487
v 0.480000 0.000000 0.004487
v 0.420000 0.060000 0.004487
v 0.540000 0.000000 0.004487
v 0.480000 0.060000 0.004487
v 0.600000 0.000000 0.004487
v 0.540000 0.060000 0.004487
v 0.600000 0.060000 0.004487
v 0.000000 0.120000 0.004487
v 0.060000 0.120000 0.004487
v 0.120000 0.120000 0.004487
v 0.180000 0.120000 0.004487
v 0.240000 0.120000 0.004487
v 0.300000 0.120000 0.004487
v 0.360000 0.120000 0.004487
v 0.420000 0.120000 0.004487
v 0.480000 0.120000 0.004487
v 0.540000 0.120000 0.004487
v 0.600000 0.120000 0.004487
v 0.000000 0.180000 0.004487
v 0.060000 0.180000 0.004487
v 0.120000 0.180000 0.004487
v 0.180000 0.180000 0.004487
v 0.240000 0.180000 0.004487
v 0.300000 0.180000 0.004487
v 0.360000 0.180000 0.004487
v 0.420000 0.180000 0.004487
v 0.480000 0.180000 0.004487
v 0.540000 0.180000 0.004487
v 0.600000 0.180000 0.004487
v 0.000000 0.240000 0.004487
v 0.060000 0.240000 0.004487
v 0.120000 0.240000 0.004487
v 0.180000 0.240000 0.004487
v 0.240000 0.240000 0.004487
v 0.300000 0.240000 0.004487
v 0.360000 0.240000 0.004487
v 0.420000 0.240000 0.004487
v 0.480000 0.240000 0.004487
v 0.540000 0.240000 0.004487
v 0.600000 0.240000 0.004487
v 0.000000 0.300000 0.004487
v 0.060000 0.300000 0.004487
v 0.120000 0.300000 0.004487
v 0.180000 0.300000 0.004487
v 0.240000 0.300000 0.004487
v 0.300000 0.300000 0.004487
v 0.360000 0.300000 0.004487
v 0.420000 0.300000 0.004487
v 0.480000 0.300000 0.004487
v 0.540000 0.300000 0.004487
v 0.600000 0.300000 0.004487
v 0.000000 0.360000 0.004487
v 0.060000 0.360000 0.004487
v 0.120000 0.360000 0.004487
v 0.180000 0.360000 0.004487
v 0.240000 0.360000 0.004487
v 0.300000 0.360000 0.004487
v 0.360000 0.360000 0.004487
v 0.420000 0.360000 0.004487
v 0.480000 0.360000 0.004487
v 0.540000 0.360000 0.004487
v 0.600000 0.360000 0.004487
v 0.000000 0.420000 0.004487
v 0.060000 0.420000 0.004487
v 0.120000 0.420000 0.004487
v 0.180000 0.420000 0.004487
v 0.240000 0.420000 0.004487
v 0.300000 0.420000 0.004487
v 0.360000 0.420000 0.004487
v 0.420000 0.420000 0.004487
v 0.480000 0.420000 0.004487
v 0.540000 0.420000 0.004487
v 0.600000 0.420000 0.004487
v 0.000000 0.480000 0.004487
v 0.060000 0.480000 0.004487
v 0.120000 0.480000 0.004487
v 0.180000 0.480000 0.004487
v 0.240000 0.480000 0.004487
v 0.300000 0.480000 0.004487
v 0.360000 0.480000 0.004487
v 0.420000 0.480000 0.004487
v 0.480000 0.480000 0.004487
v 0.540000 0.480000 0.004487
v 0.600000 0.480000 0.004487
v 0.000000 0.540000 0.004487
v 0.060000 0.540000 0.004487
v 0.120000 0.540000 0.004487
v 0.180000 0.540000 0.004487
v 0.240000 0.540000 0.004487
v 0.300000 0.540000 0.004487
v 0.360000 0.540000 0.004487
v 0.420000 0.540000 0.004487
v 0.480000 0.540000 0.004487
v 0.540000 0.540000 0.004487
v 0.600000 0.540000 0.004487
v 0.000000 0.600000 0.004487
v 0.060000 0.600000 0.004487
v 0.120000 0.600000 0.004487
v 0.180000 0.600000 0.004487
v 0.240000 0.600000 0.004487
v 0.300000 0.600000 0.004487
v 0.360000 0.600000 0.004487
v 0.420000 0.600000 0.004487
v 0.480000 0.600000 0.004487
v 0.540000 0.600000 0.004487
v 0.600000 0.600000 0.004487
vn -0.0000 -0.0000 -1.0000
vn -0.0000 -0.0000 1.0000
vn -1.0000 -0.0000 -0.0000
vn 1.0000 -0.0000 -0.0000
vn -0.0000 -1.0000 -0.0000
vn -0.7071 -0.7071 -0.0000
vn 0.7071 0.7071 -0.0000
vn 0.7071 -0.7071 -0.0000
vn -0.7071 0.7071 -0.0000
vn -0.0000 1.0000 -0.0000
s 1
usemtl 材质.003
f 1//1 3//1 2//1
f 2//1 5//1 4//1
f 4//1 7//1 6//1
f 6//1 9//1 8//1
f 8//1 11//1 10//1
f 10//1 13//1 12//1
f 12//1 15//1 14//1
f 14//1 17//1 16//1
f 16//1 19//1 18//1
f 18//1 21//1 20//1
f 2//1 3//1 5//1
f 4//1 5//1 7//1
f 6//1 7//1 9//1
f 8//1 9//1 11//1
f 10//1 11//1 13//1
f 12//1 13//1 15//1
f 14//1 15//1 17//1
f 16//1 17//1 19//1
f 18//1 19//1 21//1
f 20//1 21//1 22//1
f 3//1 23//1 5//1
f 5//1 24//1 7//1
f 7//1 25//1 9//1
f 9//1 26//1 11//1
f 11//1 27//1 13//1
f 13//1 28//1 15//1
f 15//1 29//1 17//1
f 17//1 30//1 19//1
f 19//1 31//1 21//1
f 21//1 32//1 22//1
f 5//1 23//1 24//1
f 7//1 24//1 25//1
f 9//1 25//1 26//1
f 11//1 26//1 27//1
f 13//1 27//1 28//1
f 15//1 28//1 29//1
f 17//1 29//1 30//1
f 19//1 30//1 31//1
f 21//1 31//1 32//1
f 22//1 32//1 33//1
f 23//1 34//1 24//1
f 24//1 35//1 25//1
f 25//1 36//1 26//1
f 26//1 37//1 27//1
f 27//1 38//1 28//1
f 28//1 39//1 29//1
f 29//1 40//1 30//1
f 30//1 41//1 31//1
f 31//1 42//1 32//1
f 32//1 43//1 33//1
f 24//1 34//1 35//1
f 25//1 35//1 36//1
f 26//1 36//1 37//1
f 27//1 37//1 38//1
f 28//1 38//1 39//1
f 29//1 39//1 40//1
f 30//1 40//1 41//1
f 31//1 41//1 42//1
f 32//1 42//1 43//1
f 33//1 43//1 44//1
f 34//1 45//1 35//1
f 35//1 46//1 36//1
f 36//1 47//1 37//1
f 37//1 48//1 38//1
f 38//1 49//1 39//1
f 39//1 50//1 40//1
f 40//1 51//1 41//1
f 41//1 52//1 42//1
f 42//1 53//1 43//1
f 43//1 54//1 44//1
f 35//1 45//1 46//1
f 36//1 46//1 47//1
f 37//1 47//1 48//1
f 38//1 48//1 49//1
f 39//1 49//1 50//1
f 40//1 50//1 51//1
f 41//1 51//1 52//1
f 42//1 52//1 53//1
f 43//1 53//1 54//1
f 44//1 54//1 55//1
f 45//1 56//1 46//1
f 46//1 57//1 47//1
f 47//1 58//1 48//1
f 48//1 59//1 49//1
f 49//1 60//1 50//1
f 50//1 61//1 51//1
f 51//1 62//1 52//1
f 52//1 63//1 53//1
f 53//1 64//1 54//1
f 54//1 65//1 55//1
f 46//1 56//1 57//1
f 47//1 57//1 58//1
f 48//1 58//1 59//1
f 49//1 59//1 60//1
f 50//1 60//1 61//1
f 51//1 61//1 62//1
f 52//1 62//1 63//1
f 53//1 63//1 64//1
f 54//1 64//1 65//1
f 55//1 65//1 66//1
f 56//1 67//1 57//1
f 57//1 68//1 58//1
f 58//1 69//1 59//1
f 59//1 70//1 60//1
f 60//1 71//1 61//1
f 61//1 72//1 62//1
f 62//1 73//1 63//1
f 63//1 74//1 64//1
f 64//1 75//1 65//1
f 65//1 76//1 66//1
f 57//1 67//1 68//1
f 58//1 68//1 69//1
f 59//1 69//1 70//1
f 60//1 70//1 71//1
f 61//1 71//1 72//1
f 62//1 72//1 73//1
f 63//1 73//1 74//1
f 64//1 74//1 75//1
f 65//1 75//1 76//1
f 66//1 76//1 77//1
f 67//1 78//1 68//1
f 68//1 79//1 69//1
f 69//1 80//1 70//1
f 70//1 81//1 71//1
f 71//1 82//1 72//1
f 72//1 83//1 73//1
f 73//1 84//1 74//1
f 74//1 85//1 75//1
f 75//1 86//1 76//1
f 76//1 87//1 77//1
f 68//1 78//1 79//1
f 69//1 79//1 80//1
f 70//1 80//1 81//1
f 71//1 81//1 82//1
f 72//1 82//1 83//1
f 73//1 83//1 84//1
f 74//1 84//1 85//1
f 75//1 85//1 86//1
f 76//1 86//1 87//1
f 77//1 87//1 88//1
f 78//1 89//1 79//1
f 79//1 90//1 80//1
f 80//1 91//1 81//1
f 81//1 92//1 82//1
f 82//1 93//1 83//1
f 83//1 94//1 84//1
f 84//1 95//1 85//1
f 85//1 96//1 86//1
f 86//1 97//1 87//1
f 87//1 98//1 88//1
f 79//1 89//1 90//1
f 80//1 90//1 91//1
f 81//1 91//1 92//1
f 82//1 92//1 93//1
f 83//1 93//1 94//1
f 84//1 94//1 95//1
f 85//1 95//1 96//1
f 86//1 96//1 97//1
f 87//1 97//1 98//1
f 88//1 98//1 99//1
f 89//1 100//1 90//1
f 90//1 101//1 91//1
f 91//1 102//1 92//1
f 92//1 103//1 93//1
f 93//1 104//1 94//1
f 94//1 105//1 95//1
f 95//1 106//1 96//1
f 96//1 107//1 97//1
f 97//1 108//1 98//1
f 98//1 109//1 99//1
f 90//1 100//1 101//1
f 91//1 101//1 102//1
f 92//1 102//1 103//1
f 93//1 103//1 104//1
f 94//1 104//1 105//1
f 95//1 105//1 106//1
f 96//1 106//1 107//1
f 97//1 107//1 108//1
f 98//1 108//1 109//1
f 99//1 109//1 110//1
f 100//1 111//1 101//1
f 101//1 112//1 102//1
f 102//1 113//1 103//1
f 103//1 114//1 104//1
f 104//1 115//1 105//1
f 105//1 116//1 106//1
f 106//1 117//1 107//1
f 107//1 118//1 108//1
f 108//1 119//1 109//1
f 109//1 120//1 110//1
f 101//1 111//1 112//1
f 102//1 112//1 113//1
f 103//1 113//1 114//1
f 104//1 114//1 115//1
f 105//1 115//1 116//1
f 106//1 116//1 117//1
f 107//1 117//1 118//1
f 108//1 118//1 119//1
f 109//1 119//1 120//1
f 110//1 120//1 121//1
f 122//2 123//2 124//2
f 123//2 125//2 126//2
f 125//2 127//2 128//2
f 127//2 129//2 130//2
f 129//2 131//2 132//2
f 131//2 133//2 134//2
f 133//2 135//2 136//2
f 135//2 137//2 138//2
f 137//2 139//2 140//2
f 139//2 141//2 142//2
f 123//2 126//2 124//2
f 125//2 128//2 126//2
f 127//2 130//2 128//2
f 129//2 132//2 130//2
f 131//2 134//2 132//2
f 133//2 136//2 134//2
f 135//2 138//2 136//2
f 137//2 140//2 138//2
f 139//2 142//2 140//2
f 141//2 143//2 142//2
f 124//2 126//2 144//2
f 126//2 128//2 145//2
f 128//2 130//2 146//2
f 130//2 132//2 147//2
f 132//2 134//2 148//2
f 134//2 136//2 149//2
f 136//2 138//2 150//2
f 138//2 140//2 151//2
f 140//2 142//2 152//2
f 142//2 143//2 153//2
f 126//2 145//2 144//2
f 128//2 146//2 145//2
f 130//2 147//2 146//2
f 132//2 148//2 147//2
f 134//2 149//2 148//2
f 136//2 150//2 149//2
f 138//2 151//2 150//2
f 140//2 152//2 151//2
f 142//2 153//2 152//2
f 143//2 154//2 153//2
f 144//2 145//2 155//2
f 145//2 146//2 156//2
f 146//2 147//2 157//2
f 147//2 148//2 158//2
f 148//2 149//2 159//2
f 149//2 150//2 160//2
f 150//2 151//2 161//2
f 151//2 152//2 162//2
f 152//2 153//2 163//2
f 153//2 154//2 164//2
f 145//2 156//2 155//2
f 146//2 157//2 156//2
f 147//2 158//2 157//2
f 148//2 159//2 158//2
f 149//2 160//2 159//2
f 150//2 161//2 160//2
f 151//2 162//2 161//2
f 152//2 163//2 162//2
f 153//2 164//2 163//2
f 154//2 165//2 164//2
f 155//2 156//2 166//2
f 156//2 157//2 167//2
f 157//2 158//2 168//2
f 158//2 159//2 169//2
f 159//2 160//2 170//2
f 160//2 161//2 171//2
f 161//2 162//2 172//2
f 162//2 163//2 173//2
f 163//2 164//2 174//2
f 164//2 165//2 175//2
f 156//2 167//2 166//2
f 157//2 168//2 167//2
f 158//2 169//2 168//2
f 159//2 170//2 169//2
f 160//2 171//2 170//2
f 161//2 172//2 171//2
f 162//2 173//2 172//2
f 163//2 174//2 173//2
f 164//2 175//2 174//2
f 165//2 176//2 175//2
f 166//2 167//2 177//2
f 167//2 168//2 178//2
f 168//2 169//2 179//2
f 169//2 170//2 180//2
f 170//2 171//2 181//2
f 171//2 172//2 182//2
f 172//2 173//2 183//2
f 173//2 174//2 184//2
f 174//2 175//2 185//2
f 175//2 176//2 186//2
f 167//2 178//2 177//2
f 168//2 179//2 178//2
f 169//2 180//2 179//2
f 170//2 181//2 180//2
f 171//2 182//2 181//2
f 172//2 183//2 182//2
f 173//2 184//2 183//2
f 174//2 185//2 184//2
f 175//2 186//2 185//2
f 176//2 187//2 186//2
f 177//2 178//2 188//2
f 178//2 179//2 189//2
f 179//2 180//2 190//2
f 180//2 181//2 191//2
f 181//2 182//2 192//2
f 182//2 183//2 193//2
f 183//2 184//2 194//2
f 184//2 185//2 195//2
f 185//2 186//2 196//2
f 186//2 187//2 197//2
f 178//2 189//2 188//2
f 179//2 190//2 189//2
f 180//2 191//2 190//2
f 181//2 192//2 191//2
f 182//2 193//2 192//2
f 183//2 194//2 193//2
f 184//2 195//2 194//2
f 185//2 196//2 195//2
f 186//2 197//2 196//2
f 187//2 198//2 197//2
f 188//2 189//2 199//2
f 189//2 190//2 200//2
f 190//2 191//2 201//2
f 191//2 192//2 202//2
f 192//2 193//2 203//2
f 193//2 194//2 204//2
f 194//2 195//2 205//2
f 195//2 196//2 206//2
f 196//2 197//2 207//2
f 197//2 198//2 208//2
f 189//2 200//2 199//2
f 190//2 201//2 200//2
f 191//2 202//2 201//2
f 192//2 203//2 202//2
f 193//2 204//2 203//2
f 194//2 205//2 204//2
f 195//2 206//2 205//2
f 196//2 207//2 206//2
f 197//2 208//2 207//2
f 198//2 209//2 208//2
f 199//2 200//2 210//2
f 200//2 201//2 211//2
f 201//2 202//2 212//2
f 202//2 203//2 213//2
f 203//2 204//2 214//2
f 204//2 205//2 215//2
f 205//2 206//2 216//2
f 206//2 207//2 217//2
f 207//2 208//2 218//2
f 208//2 209//2 219//2
f 200//2 211//2 210//2
f 201//2 212//2 211//2
f 202//2 213//2 212//2
f 203//2 214//2 213//2
f 204//2 215//2 214//2
f 205//2 216//2 215//2
f 206//2 217//2 216//2
f 207//2 218//2 217//2
f 208//2 219//2 218//2
f 209//2 220//2 219//2
f 210//2 211//2 221//2
f 211//2 212//2 222//2
f 212//2 213//2 223//2
f 213//2 214//2 224//2
f 214//2 215//2 225//2
f 215//2 216//2 226//2
f 216//2 217//2 227//2
f 217//2 218//2 228//2
f 218//2 219//2 229//2
f 219//2 220//2 230//2
f 211//2 222//2 221//2
f 212//2 223//2 222//2
f 213//2 224//2 223//2
f 214//2 225//2 224//2
f 215//2 226//2 225//2
f 216//2 227//2 226//2
f 217//2 228//2 227//2
f 218//2 229//2 228//2
f 219//2 230//2 229//2
f 220//2 231//2 230//2
f 221//2 222//2 232//2
f 222//2 223//2 233//2
f 223//2 224//2 234//2
f 224//2 225//2 235//2
f 225//2 226//2 236//2
f 226//2 227//2 237//2
f 227//2 228//2 238//2
f 228//2 229//2 239//2
f 229//2 230//2 240//2
f 230//2 231//2 241//2
f 222//2 233//2 232//2
f 223//2 234//2 233//2
f 224//2 235//2 234//2
f 225//2 236//2 235//2
f 226//2 237//2 236//2
f 227//2 238//2 237//2
f 228//2 239//2 238//2
f 229//2 240//2 239//2
f 230//2 241//2 240//2
f 231//2 242//2 241//2
f 67//3 56//3 177//3 188//3
f 55//4 66//4 187//4 176//4
f 4//5 6//5 127//5 125//5
f 45//3 34//3 155//3 166//3
f 1//6 2//5 123//5 122//6
f 110//4 121//7 242//7 231//4
f 18//5 20//8 141//8 139//5
f 3//3 1//6 122//6 124//3
f 2//5 4//5 125//5 123//5
f 77//4 88//4 209//4 198//4
f 8//5 10//5 131//5 129//5
f 34//3 23//3 144//3 155//3
f 99//4 110//4 231//4 220//4
f 111//9 100//3 221//3 232//9
f 44//4 55//4 176//4 165//4
f 89//3 78//3 199//3 210//3
f 112//10 111//9 232//9 233//10
f 6//5 8//5 129//5 127//5
f 113//10 112//10 233//10 234//10
f 22//4 33//4 154//4 143//4
f 12//5 14//5 135//5 133//5
f 23//3 3//3 124//3 144//3
f 56//3 45//3 166//3 177//3
f 114//10 113//10 234//10 235//10
f 78//3 67//3 188//3 199//3
f 116//10 115//10 236//10 237//10
f 10//5 12//5 133//5 131//5
f 117//10 116//10 237//10 238//10
f 16//5 18//5 139//5 137//5
f 88//4 99//4 220//4 209//4
f 66//4 77//4 198//4 187//4
f 118//10 117//10 238//10 239//10
f 120//10 119//10 240//10 241//10
f 100//3 89//3 210//3 221//3
f 14//5 16//5 137//5 135//5
f 121//7 120//10 241//10 242//7
f 115//10 114//10 235//10 236//10
f 119//10 118//10 239//10 240//10
f 33//4 44//4 165//4 154//4
f 20//8 22//4 143//4 141//8
